<svg xmlns="http://www.w3.org/2000/svg" xmlns:xlink="http://www.w3.org/1999/xlink" viewBox="0 0 325.11 484.68"><defs><style>.cls-1,.cls-4{fill:none;}.cls-2{fill:#317e7a;}.cls-3{fill:url(#linear-gradient);}.cls-4{stroke:#85c9be;stroke-miterlimit:10;stroke-width:2px;}.cls-5{opacity:0.3;fill:url(#linear-gradient-2);}.cls-6{clip-path:url(#clip-path);}</style><linearGradient id="linear-gradient" x1="-758.48" y1="69.64" x2="-425.93" y2="-182.72" gradientTransform="matrix(-0.28, -0.96, -0.96, 0.28, -77.08, -317.64)" gradientUnits="userSpaceOnUse"><stop offset="0" stop-color="#85c9be"/><stop offset="0.07" stop-color="#7cc2b7"/><stop offset="0.49" stop-color="#509d96"/><stop offset="0.81" stop-color="#348681"/><stop offset="1" stop-color="#2a7d79"/></linearGradient><linearGradient id="linear-gradient-2" x1="-0.17" y1="924" x2="313.29" y2="982.74" gradientTransform="matrix(0.3, 0.95, 0.95, -0.3, -810.56, 389.95)" gradientUnits="userSpaceOnUse"><stop offset="0" stop-color="#18434c"/><stop offset="1" stop-color="#00a099"/></linearGradient><clipPath id="clip-path" transform="translate(0 36.48)"><path class="cls-1" d="M299.33,280.56q-7.29,13.76-15,26.18c-3.31,58.91-33.63,95-68.87,82.29-67.19,58-133.06,61-144.27,30.63-23.3-8.83-58.67-34-60-105.83a161.86,161.86,0,0,1,3.54-38.08c-11.13-16.61-18-38.38-13.14-66.36,3.88-22.11,11.66-40.65,22.24-55.67-.16-.88-.32-1.77-.46-2.66-5.58-34.44-2.83-82.4,44.8-117.53C218-77,391.56,106.54,299.33,280.56Z"/></clipPath></defs><g id="Layer_2" data-name="Layer 2"><g id="Layer_1-2" data-name="Layer 1"><path class="cls-2" d="M91.33,424.39S13.18,421.21,11.2,313.83C9.43,217.6,79.83,216.29,23.6,130c0,0,164.13,98.83,142.87,186.79S91.33,424.39,91.33,424.39Z" transform="translate(0 36.48)"/><path class="cls-3" d="M56.09,220.44c-16.74-19.93-28.55-43.69-32.71-69.39-5.58-34.43-2.83-82.39,44.8-117.52,149.84-110.5,323.38,73,231.15,247S60.18,466.91,70,404C79.26,344.6,125.6,303.21,56.09,220.44Z" transform="translate(0 36.48)"/><path class="cls-4" d="M40.21,228.93C23.47,209,11.66,185.24,7.49,159.54,1.92,125.1,4.67,77.14,52.3,42c149.83-110.5,323.37,73,231.15,247S44.29,475.4,54.11,412.5C63.37,353.09,109.72,311.7,40.21,228.93Z" transform="translate(0 36.48)"/><path class="cls-5" d="M98.34,325c-20.82-2.32-40.89-9.6-57.58-22.26-22.37-17-47.39-46.41-39.15-93.32C27.53,61.85,227,73.41,273.38,224.94c31.91,104.2-9.11,183.52-59.42,163.53C169,370.61,184.77,334.58,98.34,325Z" transform="translate(0 36.48)"/><g class="cls-6"><image width="667" height="1095" transform="translate(25.17) scale(0.43)" xlink:href="../../Downloads/WhatsApp_Image_2025-06-02_at_14.45.3031.png"/></g></g></g></svg>